<svg width="16" height="16" viewBox="0 0 16 16" fill="none" xmlns="http://www.w3.org/2000/svg">
<g clip-path="url(#clip0_15_16)">
<path d="M15.2813 1.13342C15.0568 0.945237 14.7935 0.808944 14.5103 0.734268C14.227 0.659592 13.9308 0.648375 13.6427 0.701417L9.52267 1.45008C8.9331 1.55639 8.39663 1.85845 8 2.30742C7.60367 1.85771 7.06716 1.55492 6.47733 1.44808L2.35733 0.699417C2.06918 0.647092 1.77305 0.658689 1.48987 0.733389C1.20669 0.808089 0.943372 0.944069 0.718521 1.13172C0.49367 1.31937 0.312775 1.55411 0.188618 1.81936C0.0644604 2.08461 7.11635e-05 2.37388 0 2.66675L0 13.8894L8 15.3447L16 13.8894V2.66675C16 2.3741 15.9357 2.08502 15.8115 1.82003C15.6873 1.55504 15.5063 1.32063 15.2813 1.13342ZM7.33333 13.8667L1.33333 12.7774V2.66675C1.33342 2.56914 1.35493 2.47274 1.39636 2.38437C1.43779 2.29599 1.49811 2.21778 1.57308 2.15528C1.64805 2.09277 1.73583 2.04749 1.83022 2.02263C1.92461 1.99777 2.0233 1.99395 2.11933 2.01142L6.23867 2.76008C6.54588 2.81598 6.82374 2.97793 7.02378 3.21769C7.22383 3.45745 7.33338 3.75982 7.33333 4.07208V13.8667ZM14.6667 12.7761L8.66667 13.8667V4.07208C8.66662 3.75982 8.77617 3.45745 8.97622 3.21769C9.17626 2.97793 9.45412 2.81598 9.76133 2.76008L13.8807 2.01142C13.9767 1.99395 14.0754 1.99777 14.1698 2.02263C14.2642 2.04749 14.352 2.09277 14.4269 2.15528C14.5019 2.21778 14.5622 2.29599 14.6036 2.38437C14.6451 2.47274 14.6666 2.56914 14.6667 2.66675V12.7761Z" fill="#FFBB00"/>
</g>
<defs>
<clipPath id="clip0_15_16">
<rect width="16" height="16" fill="white"/>
</clipPath>
</defs>
</svg>
