<svg width="36" height="36" viewBox="0 0 36 36" fill="none" xmlns="http://www.w3.org/2000/svg">
<g clip-path="url(#clip0_16_331)">
<path d="M34.4145 8.54852C33.408 7.69202 32.0745 7.32602 30.756 7.53752C28.614 7.88552 27 9.86252 27 12.138V13.5465L16.173 2.71952C15.321 1.86752 14.154 1.43552 12.942 1.53152C11.7405 1.62902 10.644 2.25002 9.93451 3.23702C9.84451 3.36152 9.76351 3.49202 9.69151 3.62402C8.87701 2.96402 7.84051 2.64002 6.77851 2.72252C5.57701 2.81852 4.48052 3.44102 3.76952 4.42802C3.12451 5.32202 2.91301 6.43652 3.10351 7.50152C2.27101 7.76852 1.53601 8.29653 1.01101 9.02552C-0.145485 10.629 0.0870149 12.942 1.54951 14.4045L2.06551 14.9205C1.54951 15.2115 1.09651 15.615 0.739515 16.11C-0.413985 17.7135 -0.182985 20.0265 1.26451 21.474L11.349 31.851C13.914 34.491 17.3535 35.9625 21.0345 35.9955C21.0765 35.9955 21.1185 35.9955 21.1605 35.9955C24.7935 35.9955 28.2105 34.5885 30.792 32.025L32.0145 30.81C34.548 28.2945 36.0015 24.8025 36.0015 21.231V11.976C36.0015 10.6545 35.424 9.40502 34.416 8.54702L34.4145 8.54852ZM33 21.2325C33 24.0105 31.8705 26.7255 29.8995 28.683L28.677 29.898C26.6385 31.923 23.8875 33.0015 21.06 32.997C18.186 32.9715 15.501 31.8225 13.4985 29.7615L3.40051 19.368C2.97301 18.9405 2.87401 18.279 3.17401 17.8635C3.44251 17.4915 3.79952 17.4105 3.99002 17.3955C4.31252 17.3715 4.62901 17.4855 4.85851 17.7135L11.295 24.15L13.416 22.029L3.67052 12.2835C3.24451 11.856 3.14551 11.196 3.44551 10.779C3.71401 10.4055 4.07101 10.3245 4.26152 10.3095C4.57052 10.2825 4.90051 10.3995 5.12851 10.6275L14.9715 20.4705L17.0925 18.3495L6.42901 7.68602C6.00301 7.25852 5.90401 6.59852 6.20401 6.18152C6.47251 5.80952 6.82951 5.72852 7.01851 5.71352C7.34851 5.68952 7.65901 5.80352 7.88701 6.03152L18.6495 16.794L20.7705 14.673L12.594 6.49652C12.1665 6.06902 12.0675 5.40752 12.369 4.99202C12.6375 4.62002 12.9945 4.53902 13.1835 4.52402C13.506 4.50302 13.8225 4.61402 14.052 4.84202L30 20.79V12.138C30 11.331 30.543 10.611 31.2375 10.4985C31.6905 10.428 32.13 10.545 32.472 10.8345C32.808 11.1195 33.0015 11.5365 33.0015 11.9775L33 21.2325ZM20.5785 2.93852L21.4215 0.0615234C24.606 0.994523 26.7135 3.09902 27.6855 6.31652L24.813 7.18352C24.144 4.96652 22.7595 3.57902 20.5785 2.93852ZM7.17151 31.4445L6.32851 34.3245C3.14251 33.3915 1.03501 31.287 0.0630148 28.068L2.93551 27.201C3.60451 29.4195 4.99201 30.807 7.17151 31.4445Z" fill="white"/>
</g>
<defs>
<clipPath id="clip0_16_331">
<rect width="36" height="36" fill="white"/>
</clipPath>
</defs>
</svg>
